<!DOCTYPE svg PUBLIC "-//W3C//DTD SVG 20010904//EN" "http://www.w3.org/TR/2001/REC-SVG-20010904/DTD/svg10.dtd">
<svg version="1.0" xmlns="http://www.w3.org/2000/svg" width="591px" height="422px" viewBox="0 0 5910 4220" preserveAspectRatio="xMidYMid meet">
<g id="layer101" fill="#ffffff" stroke="none">
 <path d="M2875 3200 c-2 -3 -18 -7 -36 -8 -18 -2 -36 -7 -40 -13 -3 -6 -9 -10 -13 -10 -21 4 -131 -80 -120 -91 5 -6 -145 -43 -158 -40 -5 1 -8 -2 -8 -6 0 -8 -50 -36 -58 -33 -10 5 -105 -106 -126 -146 -23 -46 -64 -96 -76 -93 -9 3 -126 -115 -122 -122 2 -5 -2 -8 -8 -8 -7 0 -10 -6 -7 -13 3 -7 -6 -45 -19 -85 -12 -39 -21 -81 -19 -92 3 -17 -4 -25 -34 -38 -21 -10 -57 -40 -81 -67 -24 -28 -48 -53 -54 -57 -6 -4 -8 -8 -4 -8 4 0 -3 -21 -16 -47 -37 -75 -49 -175 -30 -253 4 -19 8 -37 9 -40 5 -31 51 -117 62 -117 8 0 26 18 39 39 24 38 25 41 10 86 -36 112 -28 188 29 286 24 42 101 106 126 106 6 0 8 4 4 9 -3 5 3 12 13 16 16 4 20 19 25 81 3 47 12 85 23 102 10 15 19 33 20 41 6 34 137 132 166 124 4 -2 5 4 2 12 -4 8 -1 15 6 15 6 0 8 5 5 10 -4 6 1 22 10 36 9 14 14 28 11 31 -9 9 50 77 92 107 21 14 52 28 68 30 141 19 133 16 190 73 30 29 59 51 64 48 4 -3 16 2 25 11 23 24 168 24 212 1 18 -10 35 -17 39 -16 9 2 67 -52 86 -80 14 -20 27 -24 90 -28 59 -3 82 -10 118 -33 50 -32 124 -115 115 -129 -12 -21 30 -82 74 -108 50 -29 97 -63 87 -63 -3 0 3 -9 14 -20 32 -32 52 -91 56 -169 2 -40 5 -74 6 -75 37 -15 83 -45 110 -70 47 -46 78 -88 72 -98 -3 -4 -1 -8 4 -8 22 0 41 -161 23 -195 -3 -5 -7 -19 -8 -29 -2 -11 -10 -27 -18 -35 -12 -14 -10 -22 17 -63 24 -37 35 -45 47 -38 21 11 59 110 71 184 8 52 8 76 -5 151 -4 30 -48 118 -65 133 -13 12 -13 13 0 6 8 -4 -7 15 -33 43 -27 28 -66 58 -86 68 -31 14 -38 21 -36 43 1 15 -4 44 -12 66 -7 21 -10 42 -7 47 3 5 0 9 -6 9 -6 0 -8 5 -5 10 4 6 -3 25 -14 44 -11 18 -19 36 -16 39 3 4 2 5 -1 3 -4 -3 -25 14 -48 37 -52 52 -89 82 -96 77 -3 -2 -16 19 -30 46 -36 74 -80 130 -117 150 -18 9 -33 21 -33 26 0 4 -6 8 -14 8 -7 0 -19 6 -25 14 -6 8 -24 16 -39 19 -112 21 -123 25 -159 63 -17 19 -34 34 -37 34 -3 0 -22 10 -43 22 -36 22 -46 25 -88 32 -11 2 -20 4 -20 6 0 4 -147 5 -150 0z"/>
 <path d="M2859 2762 c-25 -11 -60 -34 -77 -52 -18 -18 -32 -30 -32 -26 0 12 -24 -17 -37 -44 -14 -30 -31 -54 -103 -134 -30 -35 -64 -79 -75 -99 -11 -20 -23 -37 -27 -37 -4 0 -5 -6 -2 -14 3 -8 0 -17 -5 -21 -6 -3 -9 -11 -6 -16 4 -5 2 -9 -4 -9 -6 0 -10 -12 -9 -27 2 -55 -15 -168 -28 -190 -8 -13 -24 -23 -37 -22 -56 0 -151 -21 -214 -48 -21 -9 -41 -16 -44 -15 -18 4 -169 -145 -169 -166 0 -5 -11 -20 -24 -33 -13 -13 -22 -29 -19 -36 3 -7 0 -13 -5 -13 -6 0 -14 -17 -18 -37 -4 -21 -9 -42 -13 -48 -6 -11 -10 -51 -14 -135 l-2 -54 35 -7 c54 -12 210 -11 263 0 26 6 75 21 110 35 34 13 72 27 85 31 12 3 22 11 22 16 0 5 7 9 15 9 9 0 18 7 21 15 4 8 11 12 17 8 5 -3 7 -1 4 4 -4 6 21 27 55 48 51 30 69 36 98 31 19 -3 40 -13 46 -21 13 -17 102 -65 122 -65 6 0 12 -3 12 -7 0 -5 10 -9 23 -9 12 -1 52 -5 88 -9 92 -11 219 13 264 48 6 4 31 21 57 38 39 25 53 29 84 23 20 -4 45 -15 55 -25 11 -11 19 -17 19 -14 0 5 43 -25 115 -80 10 -8 23 -16 27 -16 16 -3 24 -6 63 -23 22 -9 61 -22 88 -28 44 -11 65 -28 32 -28 -8 0 -15 -4 -15 -10 0 -5 -9 -19 -20 -30 -11 -11 -17 -20 -14 -20 18 0 -76 -72 -120 -93 -64 -29 -167 -35 -221 -13 -21 9 -40 16 -44 16 -3 0 -18 -21 -31 -47 -53 -102 -145 -154 -283 -161 -79 -4 -96 -2 -155 22 -59 24 -123 67 -133 92 -22 51 -56 91 -75 90 -12 0 -20 -4 -18 -8 3 -4 -4 -7 -13 -7 -10 -1 -49 -4 -86 -7 -62 -5 -74 -3 -130 24 -69 34 -131 87 -121 104 4 7 3 8 -4 4 -10 -6 -23 10 -34 39 -1 5 -12 8 -23 5 -11 -2 -32 -4 -46 -4 -21 -1 -25 -6 -24 -26 1 -14 5 -31 9 -38 4 -7 5 -12 2 -12 -3 0 2 -8 12 -18 39 -41 67 -77 64 -84 -1 -5 1 -7 6 -6 11 2 44 -13 74 -34 66 -46 173 -68 263 -55 38 6 42 4 80 -42 49 -58 113 -108 151 -117 16 -4 34 -10 39 -14 6 -4 64 -8 130 -9 90 -2 132 2 165 14 25 9 50 17 56 18 24 6 72 43 121 95 l51 55 94 2 c91 2 118 5 128 15 6 6 103 54 111 54 33 4 139 137 139 175 0 17 -6 21 -30 21 -16 0 -30 4 -30 9 0 6 42 10 93 10 93 0 150 6 166 16 5 3 7 26 5 53 -2 26 -6 73 -8 105 -3 32 -10 65 -16 72 -7 8 -8 20 -4 26 4 7 3 9 -3 6 -6 -4 -14 5 -18 21 -11 46 -149 212 -175 212 -5 0 -13 8 -19 18 -5 9 -12 15 -16 13 -8 -6 -75 21 -75 30 0 4 -6 6 -12 6 -7 -1 -55 5 -107 13 -111 17 -128 32 -118 105 4 25 3 45 -2 45 -5 0 -12 24 -15 53 -4 28 -16 71 -26 94 -10 23 -16 44 -12 47 3 3 0 6 -6 6 -5 0 -20 16 -32 35 -12 19 -39 53 -61 74 -21 22 -40 45 -41 51 -4 18 -48 69 -103 122 -83 80 -74 76 -175 84 -39 3 -69 -1 -101 -14z m57 -122 c-4 -19 -7 -44 -8 -54 -1 -11 -21 -39 -45 -62 -51 -52 -50 -79 3 -70 19 3 50 9 69 12 19 3 43 3 52 -1 10 -3 20 -6 23 -7 3 0 12 -4 21 -9 10 -5 23 -3 35 5 17 13 17 15 0 40 -9 15 -24 30 -32 33 -20 8 -47 68 -48 111 -1 32 2 37 19 34 50 -7 64 -17 108 -81 17 -25 59 -77 93 -115 35 -38 61 -73 58 -78 -3 -4 -1 -8 5 -8 28 0 85 -199 79 -275 -1 -11 4 -36 11 -56 14 -45 53 -66 141 -79 36 -6 74 -12 85 -14 11 -2 28 -4 38 -5 10 0 15 -5 12 -11 -3 -6 1 -7 9 -4 9 3 16 1 16 -5 0 -6 6 -8 14 -5 8 3 23 -3 34 -14 11 -11 22 -18 25 -16 7 7 102 -93 102 -107 0 -3 8 -13 17 -23 20 -19 56 -133 60 -186 l3 -35 -110 0 c-107 0 -112 1 -187 38 -43 21 -78 43 -78 49 0 6 -3 9 -6 5 -3 -3 -19 8 -35 24 -16 16 -29 27 -29 24 0 -3 -19 7 -42 23 -84 57 -157 62 -225 15 -15 -11 -54 -33 -86 -48 -51 -24 -71 -28 -150 -29 -111 0 -139 5 -197 38 -25 13 -62 34 -82 45 -46 26 -123 29 -165 7 -18 -9 -36 -16 -39 -15 -4 0 -10 -3 -13 -8 -3 -5 -22 -20 -41 -33 -19 -14 -43 -33 -53 -43 -18 -18 -80 -48 -93 -46 -4 0 -10 -4 -14 -11 -4 -6 -13 -12 -21 -13 -8 -2 -21 -7 -29 -12 -18 -11 -228 -17 -234 -7 -6 10 27 148 47 195 9 21 35 56 57 77 22 22 39 43 38 47 -2 4 31 25 72 46 70 35 110 45 234 62 36 5 57 15 80 38 37 38 36 37 47 152 8 100 41 200 70 218 10 6 19 17 19 24 0 6 12 21 28 33 15 12 20 18 12 14 -13 -7 -13 -5 -1 9 7 9 17 14 22 11 5 -3 8 -1 7 4 -2 5 7 19 20 30 13 11 22 23 20 25 -2 3 19 32 45 66 39 51 52 61 69 55 13 -4 18 -2 14 4 -4 6 2 10 15 9 18 -1 20 -6 15 -37z"/>
 <path d="M2375 1914 c-33 -13 -77 -38 -97 -54 -20 -17 -41 -30 -46 -30 -4 0 -18 -18 -31 -40 -12 -22 -27 -40 -32 -40 -6 0 -8 -4 -5 -8 7 -11 -26 -44 -91 -92 -30 -21 -47 -40 -40 -43 30 -11 198 31 255 64 19 11 38 16 44 13 6 -4 8 -2 5 3 -4 6 7 16 23 23 17 7 30 15 30 19 0 3 25 33 55 66 61 66 70 84 61 121 -8 32 -51 32 -131 -2z"/>
 <path d="M3391 1922 c-9 -16 -6 -29 14 -65 14 -24 39 -54 55 -67 17 -13 30 -29 30 -36 0 -8 4 -14 9 -14 4 0 19 -10 32 -22 14 -13 28 -24 32 -25 4 -1 32 -14 62 -28 70 -32 219 -69 242 -61 14 6 8 13 -28 36 -24 17 -39 30 -34 30 6 1 -5 7 -22 15 -18 8 -33 21 -33 30 0 29 -107 140 -163 169 -20 10 -34 23 -31 27 3 5 -2 6 -11 3 -8 -4 -21 -1 -29 5 -8 7 -36 14 -64 18 -43 5 -51 3 -61 -15z"/>
 </g>

</svg>